# Blender v2.79 (sub 0) OBJ File: 'boatCol.obj'
# www.blender.org
mtllib boatCol.mtl
o rdmobj00
v -0.638499 0.341416 -1.235221
v -0.401002 0.289769 -0.947848
v -0.420360 0.463965 -1.202387
v 0.646116 -0.074641 0.793937
v 0.562622 0.193869 1.082191
v 0.450115 0.032128 1.175569
v 0.546066 0.360890 0.985786
v 0.415389 0.498322 0.906477
v 0.171168 0.641174 1.116323
v 0.318817 0.597402 -1.102472
v -0.000060 0.553624 -1.178383
v -0.000058 0.496183 -1.102451
v 0.449944 0.585069 -1.169986
v 0.382447 0.381637 -0.931701
v -0.731814 -0.130082 0.304132
v -0.798494 0.088966 0.734596
v -0.886275 0.021466 0.277442
v 0.764944 0.237024 0.680519
v 0.798652 0.088813 0.734443
v 0.886332 0.021296 0.277272
v 0.000201 0.657986 1.440062
v -0.120722 0.748258 1.272011
v -0.190734 0.320488 1.608798
v -0.449884 0.032214 1.175655
v 0.000058 -0.254043 0.859299
v 0.000110 -0.099840 1.251812
v -0.701322 0.178583 -1.278865
v -0.596845 0.194086 -0.964713
v 0.000185 0.289468 1.639964
v 0.000230 0.607327 1.788807
v -0.153105 0.184175 -1.277404
v -0.225136 -0.051694 -1.372482
v -0.225134 -0.059662 -1.342760
v 0.153192 0.879252 1.056499
v -0.359859 0.530338 0.941629
v 0.360141 0.530269 0.941561
v -0.199879 0.486706 0.778769
v -0.412012 0.149958 0.848582
v 0.114925 0.822404 1.004509
v 0.412203 0.149879 0.848503
v -0.318914 0.597463 -1.102411
v -0.382552 0.381711 -0.931628
v -0.266846 0.381700 -0.931639
v 0.270148 0.129677 1.418050
v 0.000010 0.150004 -0.044985
v 0.000021 0.266320 -0.043987
v 0.112526 0.277555 -0.002011
v -0.494976 0.150039 0.090062
v -0.494963 0.300105 0.082020
v -0.112473 0.277576 -0.001990
v -0.562377 0.193977 1.082299
v -0.645979 -0.074517 0.794061
v 0.638328 0.341294 -1.235344
v 0.400876 0.289692 -0.947924
v 0.596697 0.193972 -0.964828
v -0.545808 0.360994 0.985891
v -0.415119 0.498402 0.906556
v -0.764769 0.237171 0.680666
v 0.585081 0.009023 -1.324406
v 0.641023 0.059638 -0.988531
v 0.731847 -0.130222 0.303991
v 0.121109 0.748235 1.271988
v 0.191103 0.320451 1.608761
v 0.000209 0.596097 1.586306
v -0.578036 0.358998 0.636313
v -0.170831 0.641207 1.116356
v -0.000147 -0.161265 -1.372514
v -0.450056 0.585155 -1.169899
v 0.578226 0.358888 0.636202
v -0.379632 0.294516 -0.653295
v 0.366466 0.150071 -1.102520
v 0.266741 0.381648 -0.931690
v -0.152808 0.879282 1.056499
v -0.320673 0.652690 -1.151806
v -0.269851 0.129729 1.418102
v -0.292452 0.325011 0.175059
v -0.284733 0.294506 -0.653304
v 0.224863 -0.051738 -1.372525
v 0.224865 -0.059705 -1.342803
v 0.140366 0.202618 -1.372493
v 0.152895 0.184146 -1.277433
v 0.439002 0.342856 0.220655
v 0.450025 0.149946 0.112471
v -0.641201 0.059761 -0.988408
v 0.379564 0.294443 -0.653367
v 0.495023 0.149944 0.089967
v -0.382591 0.150143 -1.102448
v 0.701111 0.178449 -1.278999
v 0.108384 0.928757 1.217608
v -0.107990 0.928778 1.217608
v -0.366648 0.150141 -1.102449
v 0.420219 0.463885 -1.202467
v 0.284664 0.294452 -0.653358
v -0.000105 0.178516 -1.278932
v 0.000064 0.149950 0.517514
v 0.200121 0.486667 0.778731
v 0.000204 0.792207 1.334484
v 0.000198 0.946577 1.283569
v -0.438894 0.342940 0.220739
v -0.536191 0.480805 0.591987
v -0.402117 0.480792 0.591974
v -0.307757 0.638591 0.825619
v -0.114575 0.822426 1.004531
v 0.292548 0.324955 0.175003
v 0.308038 0.638532 0.825560
v 0.320577 0.652628 -1.151867
v -0.140590 0.202645 -1.372466
v 0.536396 0.480702 0.591884
v 0.495036 0.300010 0.081925
v -0.585333 0.009135 -1.324293
v -0.000147 -0.161891 -1.370178
v 0.402323 0.480715 0.591897
v 0.382408 0.150069 -1.102521
v -0.449974 0.150032 0.112557
v -0.000146 -0.050493 -1.372504
v -0.000123 0.191382 -1.372481
vt 0.257813 0.500000
vt 0.500000 0.984375
vt 0.257813 0.984375
vt 0.625000 0.500000
vt 0.500000 0.984375
vt 0.500000 0.500000
vt 0.500000 0.500000
vt 0.500000 0.984375
vt 0.257813 0.984375
vt 0.132813 0.898438
vt 0.179688 0.984375
vt 0.175781 0.898438
vt 0.179688 0.984375
vt 0.175781 0.898438
vt 0.156250 0.984375
vt 0.742188 0.500000
vt 0.625000 0.984375
vt 0.742188 0.984375
vt 0.625000 0.500000
vt 0.625000 0.015625
vt 0.742188 0.015625
vt 0.234375 0.625000
vt 0.007813 0.750000
vt 0.007813 0.250000
vt 0.500000 0.500000
vt 0.625000 0.531250
vt 0.687500 0.531250
vt 0.257813 0.015625
vt 0.500000 0.500000
vt 0.226563 0.125000
vt 0.125000 0.187500
vt 0.226563 0.250000
vt 0.500000 0.535156
vt 0.320313 0.625000
vt 0.343750 0.535156
vt 0.179688 0.890625
vt 0.179688 0.984375
vt 0.156250 0.984375
vt 0.734375 0.875000
vt 0.734375 0.875000
vt 0.671875 0.500000
vt 0.742188 0.984375
vt 0.257813 0.015625
vt 0.742188 0.015625
vt 0.500000 0.015625
vt 0.175781 0.898438
vt 0.156250 0.984375
vt 0.156250 0.898438
vt 0.687500 0.468750
vt 0.226563 0.015625
vt 0.437500 0.015625
vt 0.281250 0.015625
vt 0.281250 0.187500
vt 0.437500 0.984375
vt 0.273438 0.984375
vt 0.281250 0.187500
vt 0.500000 0.984375
vt 0.625000 0.500000
vt 0.257813 0.500000
vt 0.500000 0.984375
vt 0.500000 0.500000
vt 0.500000 0.500000
vt 0.500000 0.984375
vt 0.625000 0.500000
vt 0.257813 0.500000
vt 0.500000 0.984375
vt 0.742188 0.500000
vt 0.007813 0.750000
vt 0.007813 0.250000
vt 0.242188 0.750000
vt 0.234375 0.375000
vt 0.234375 0.250000
vt 0.625000 0.984375
vt 0.242188 0.750000
vt 0.273438 0.531250
vt 0.156250 0.984375
vt 0.132813 0.890625
vt 0.132813 0.984375
vt 0.156250 0.890625
vt 0.625000 0.984375
vt 0.156250 0.890625
vt 0.257813 0.015625
vt 0.375000 0.984375
vt 0.257813 0.984375
vt 0.132813 0.984375
vt 0.132813 0.984375
vt 0.175781 0.898438
vt 0.156250 0.984375
vt 0.179688 0.984375
vt 0.179688 0.890625
vt 0.625000 0.015625
vt 0.132813 0.898438
vt 0.132813 0.984375
vt 0.375000 0.500000
vt 0.375000 0.500000
vt 0.156250 0.898438
vt 0.320313 0.625000
vt 0.343750 0.535156
vt 0.242188 0.937500
vt 0.242188 0.906250
vt 0.218750 0.890625
vt 0.500000 0.535156
vt 0.742188 0.984375
vt 0.742188 0.500000
vt 0.257813 0.015625
vt 0.500000 0.984375
vt 0.625000 0.468750
vt 0.742188 0.015625
vt 0.156250 0.984375
vt 0.156250 0.984375
vt 0.156250 0.890625
vt 0.992188 0.015625
vt 0.757813 0.015625
vt 0.757813 0.015625
vt 0.179688 0.898438
vt 0.179688 0.984375
vt 0.156250 0.898438
vt 0.257813 0.015625
vt 0.007813 0.859375
vt 0.007813 0.859375
vt 0.500000 0.984375
vt 0.257813 0.015625
vt 0.375000 0.984375
vt 0.132813 0.890625
vt 0.132813 0.984375
vt 0.156250 0.890625
vt 0.156250 0.898438
vt 0.257813 0.500000
vt 0.742188 0.015625
vt 0.257813 0.015625
vt 0.257813 0.500000
vt 0.156250 0.984375
vt 0.156250 0.898438
vt 0.179688 0.890625
vt 0.257813 0.984375
vt 0.742188 0.750000
vt 0.875000 0.375000
vt 0.757813 0.265625
vt 0.992188 0.265625
vt 0.226563 0.125000
vt 0.234375 0.750000
vt 0.234375 0.859375
vt 0.257813 0.500000
vt 0.500000 0.984375
vt 0.156250 0.898438
vt 0.156250 0.984375
vt 0.156250 0.984375
vt 0.742188 0.984375
vt 0.562500 0.984375
vt 0.257813 0.015625
vt 0.437500 0.984375
vt 0.257813 0.984375
vt 0.257813 0.984375
vt 0.757813 0.484375
vt 0.992188 0.484375
vt 0.625000 0.984375
vt 0.742188 0.984375
vt 0.257813 0.984375
vt 0.437500 0.984375
vt 0.132813 0.984375
vt 0.179688 0.890625
vt 0.500000 0.015625
vt 0.500000 0.015625
vt 0.375000 0.750000
vt 0.156250 0.890625
vt 0.273438 0.984375
vt 0.375000 0.500000
vt 0.671875 0.500000
vt 0.437500 0.984375
vt 0.257813 0.984375
vt 0.257813 0.984375
vt 0.242188 0.250000
vt 0.242188 0.859375
vt 0.242188 0.859375
vt 0.242188 0.250000
vt 0.257813 0.500000
vt 0.257813 0.984375
vt 0.257813 0.531250
vt 0.156250 0.984375
vt 0.156250 0.890625
vt 0.156250 0.898438
vt 0.156250 0.898438
vt 0.156250 0.984375
vt 0.156250 0.898438
vt 0.152344 0.898438
vt 0.132813 0.898438
vt 0.500000 0.015625
vt 0.195313 0.906250
vt 0.195313 0.937500
vt 0.375000 0.750000
vt 0.562500 0.984375
vt 0.257813 0.984375
vt 0.257813 0.468750
vt 0.257813 0.015625
vt 0.992188 0.015625
vt 0.179688 0.890625
vt 0.742188 0.500000
vt 0.742188 0.984375
vt 0.132813 0.937500
vt 0.132813 0.890625
vt 0.132813 0.890625
vt 0.132813 0.937500
vt 0.257813 0.500000
vt 0.257813 0.015625
vt 0.742188 0.015625
vt 0.257813 0.984375
vt 0.742188 0.984375
vt 0.257813 0.015625
vt 0.257813 0.500000
vn -0.6288 0.6851 -0.3678
vn -0.7589 0.6148 0.2145
vn -0.5336 0.3670 -0.7620
vn 0.5586 -0.7448 0.3650
vn 0.7952 0.1025 0.5976
vn 0.5991 -0.5751 0.5572
vn 0.7094 0.5638 0.4229
vn 0.7441 0.6094 0.2737
vn 0.8482 0.3095 0.4298
vn 0.0059 0.5704 0.8214
vn 0.0000 0.9110 -0.4125
vn 0.0001 0.3703 0.9289
vn 0.7595 0.5735 -0.3072
vn 0.6454 0.5816 0.4952
vn -0.4881 -0.8722 0.0307
vn -0.9142 -0.1481 0.3772
vn -0.9930 -0.1158 -0.0239
vn 0.8042 0.5765 0.1447
vn 0.9143 -0.1483 0.3770
vn 0.9930 -0.1160 -0.0241
vn 0.0001 0.7160 0.6981
vn -0.8187 0.3286 0.4709
vn -0.7379 -0.1044 0.6668
vn -0.5991 -0.5749 0.5573
vn -0.0001 -0.9765 0.2157
vn -0.0000 -0.8575 0.5145
vn -0.8323 0.0799 -0.5486
vn -0.7705 0.6207 0.1455
vn 0.0000 -0.5637 0.8260
vn 0.0001 0.6534 0.7570
vn -0.6085 0.7895 0.0804
vn -0.7465 -0.2434 -0.6193
vn -0.5996 -0.6170 -0.5096
vn 0.5724 0.7858 -0.2345
vn 0.0001 0.9660 -0.2587
vn 0.1001 0.9207 -0.3773
vn 0.7512 0.0024 -0.6600
vn -0.0734 0.5092 -0.8575
vn -0.7514 0.0026 -0.6599
vn -0.0057 0.5704 0.8214
vn -0.6452 0.5817 0.4953
vn 0.8983 0.3923 0.1978
vn 0.6254 -0.3472 0.6988
vn -0.0001 0.0548 -0.9985
vn -0.0000 0.5312 -0.8472
vn 0.1667 0.6501 -0.7413
vn -0.1581 0.6793 -0.7167
vn -0.1347 0.6137 -0.7780
vn -0.1667 0.6502 -0.7413
vn -0.7951 0.1026 0.5978
vn -0.5587 -0.7447 0.3651
vn 0.6289 0.6849 -0.3679
vn 0.7591 0.6147 0.2144
vn 0.7706 0.6205 0.1453
vn -0.7092 0.5640 0.4230
vn -0.7439 0.6096 0.2738
vn -0.8041 0.5766 0.1448
vn 0.4384 -0.5112 -0.7392
vn 0.9963 -0.0792 -0.0346
vn 0.4880 -0.8723 0.0306
vn 0.8188 0.3285 0.4707
vn 0.7380 -0.1045 0.6667
vn 0.0001 0.9783 0.2071
vn -0.7338 0.6791 -0.0197
vn -0.8481 0.3097 0.4300
vn -0.0001 -0.0935 -0.9956
vn -0.7594 0.5736 -0.3071
vn 0.7339 0.6789 -0.0198
vn 0.0175 0.9986 0.0507
vn -0.7530 -0.2682 0.6008
vn -0.8982 0.3925 0.1980
vn -0.5722 0.7859 -0.2345
vn -0.0798 0.9850 -0.1528
vn -0.6254 -0.3471 0.6989
vn 0.0963 0.9801 -0.1738
vn 0.9134 0.3655 0.1793
vn 0.7463 -0.2435 -0.6194
vn 0.5994 -0.6171 -0.5098
vn 0.4320 0.7077 -0.5591
vn 0.6086 0.7894 0.0803
vn -0.9633 0.2686 0.0013
vn -0.9841 -0.1498 0.0953
vn -0.9963 -0.0790 -0.0344
vn -0.0173 0.9986 0.0507
vn 0.1663 0.6793 -0.7148
vn 0.0001 1.0000 0.0001
vn -0.1664 0.6793 -0.7147
vn 0.8322 0.0798 -0.5488
vn 0.6034 0.7578 0.2484
vn -0.6033 0.7579 0.2484
vn 0.7531 -0.2684 0.6007
vn 0.5335 0.3669 -0.7621
vn -0.9133 0.3657 0.1795
vn -0.0001 0.2589 -0.9659
vn 0.0001 0.9684 -0.2495
vn -0.1000 0.9207 -0.3772
vn 0.0001 0.4708 0.8823
vn 0.0000 0.8068 0.5908
vn 0.9633 0.2684 0.0011
vn -0.6617 0.7338 -0.1541
vn 0.7150 0.5373 -0.4474
vn 0.6894 0.1629 -0.7058
vn 0.0734 0.5090 -0.8576
vn -0.0961 0.9801 -0.1738
vn -0.6895 0.1631 -0.7057
vn 0.0799 0.9850 -0.1529
vn -0.4320 0.7077 -0.5590
vn 0.6618 0.7337 -0.1543
vn 0.1347 0.6137 -0.7780
vn -0.4387 -0.5111 -0.7391
vn -0.5996 -0.6170 -0.5097
vn -0.0001 -0.9896 -0.1437
vn -0.7150 0.5374 -0.4473
vn 0.9841 -0.1500 0.0951
usemtl Material.001
s 1
f 1/1/1 2/2/2 3/3/3
f 4/4/4 5/5/5 6/6/6
f 7/7/7 8/8/8 9/9/9
f 10/10/10 11/11/11 12/12/12
f 13/13/13 10/14/10 14/15/14
f 15/16/15 16/17/16 17/18/17
f 18/19/18 19/20/19 20/21/20
f 21/22/21 22/23/22 23/24/23
f 24/25/24 25/26/25 26/27/26
f 27/28/27 28/29/28 1/1/1
f 23/30/23 29/31/29 30/32/30
f 31/33/31 32/34/32 33/35/33
f 34/36/34 9/37/9 8/38/8
f 35/39/35 36/40/35 37/41/36
f 38/42/37 39/43/38 40/44/39
f 19/20/19 7/7/7 5/45/5
f 41/46/40 42/47/41 43/48/42
f 26/49/26 6/6/6 44/50/43
f 45/51/44 46/52/45 47/53/46
f 48/54/47 49/55/48 50/56/49
f 51/57/50 16/17/16 52/58/51
f 53/59/52 54/60/53 55/61/54
f 56/62/55 57/63/56 58/64/57
f 59/65/58 60/66/59 61/67/60
f 62/68/61 63/69/62 9/70/9
f 64/71/63 23/24/23 30/72/30
f 58/64/57 65/73/64 28/29/28
f 62/68/61 21/22/21 63/69/62
f 22/23/22 66/74/65 23/24/23
f 33/35/33 32/34/32 67/75/66
f 25/26/25 52/58/51 15/16/15
f 2/76/2 68/77/67 3/78/3
f 68/77/67 2/76/2 42/79/41
f 55/61/54 54/60/53 69/80/68
f 70/81/69 42/79/41 2/76/2
f 71/82/70 72/83/71 10/84/10
f 73/85/72 34/86/34 39/87/38
f 57/88/56 66/89/65 73/90/72
f 16/91/16 56/62/55 58/64/57
f 41/92/40 11/11/11 74/93/73
f 29/31/29 23/30/23 75/94/74
f 76/95/75 47/53/46 50/56/49
f 42/47/41 77/96/76 43/48/42
f 78/97/77 79/98/78 67/75/66
f 80/99/79 78/100/77 67/101/66
f 78/97/77 81/102/80 79/98/78
f 82/103/81 83/104/82 40/105/39
f 15/16/15 17/18/17 84/106/83
f 61/67/60 4/4/4 25/107/25
f 17/108/17 58/64/57 28/29/28
f 69/109/68 54/110/53 85/111/84
f 86/112/85 87/113/86 48/114/87
f 41/115/40 68/116/67 42/47/41
f 14/15/14 10/14/10 72/117/71
f 55/61/54 88/118/88 53/59/52
f 80/99/79 31/33/31 81/102/80
f 89/119/89 73/85/72 90/120/90
f 77/121/76 91/122/91 43/123/42
f 13/124/13 54/110/53 92/125/92
f 54/110/53 13/124/13 14/126/14
f 93/127/93 14/15/14 72/117/71
f 7/7/7 44/128/43 5/45/5
f 71/129/70 10/130/10 12/131/12
f 85/132/84 93/127/93 82/133/81
f 11/134/11 92/135/92 94/136/94
f 95/137/95 37/138/36 96/139/96
f 6/6/6 25/107/25 4/4/4
f 29/31/29 63/140/62 30/32/30
f 97/141/97 89/119/89 98/142/98
f 64/71/63 63/69/62 21/22/21
f 75/143/74 56/62/55 51/57/50
f 93/144/93 71/82/70 83/104/82
f 99/145/99 70/146/69 100/147/100
f 97/141/97 90/120/90 22/23/22
f 99/148/99 101/149/101 38/150/37
f 38/150/37 102/151/102 103/152/103
f 91/122/91 41/153/40 43/123/42
f 76/154/75 95/137/95 104/155/104
f 19/156/19 61/67/60 20/157/20
f 104/155/104 95/137/95 96/139/96
f 37/138/36 95/137/95 76/154/75
f 39/158/38 105/159/105 40/105/39
f 1/1/1 28/29/28 2/2/2
f 19/156/19 5/5/5 4/4/4
f 5/5/5 44/128/43 6/6/6
f 7/7/7 18/19/18 8/8/8
f 10/10/10 106/160/106 11/11/11
f 13/13/13 106/161/106 10/14/10
f 15/16/15 52/58/51 16/17/16
f 20/21/20 60/162/59 55/61/54
f 55/61/54 18/19/18 20/21/20
f 21/22/21 97/141/97 22/23/22
f 24/25/24 52/58/51 25/26/25
f 27/28/27 84/163/83 28/29/28
f 31/33/31 107/164/107 32/34/32
f 69/109/68 108/165/108 8/38/8
f 108/165/108 34/36/34 8/38/8
f 109/166/109 47/53/46 104/167/104
f 109/166/109 104/167/104 96/168/96
f 76/95/75 50/56/49 49/55/48
f 37/41/36 76/95/75 49/55/48
f 36/40/35 109/166/109 96/168/96
f 37/41/36 49/55/48 35/39/35
f 36/40/35 96/168/96 37/41/36
f 38/42/37 103/152/103 39/43/38
f 19/20/19 18/19/18 7/7/7
f 63/140/62 29/31/29 44/50/43
f 29/31/29 26/49/26 44/50/43
f 109/166/109 86/169/85 47/53/46
f 86/169/85 45/51/44 47/53/46
f 46/52/45 45/51/44 50/56/49
f 45/51/44 48/54/47 50/56/49
f 52/58/51 24/25/24 51/57/50
f 24/25/24 75/143/74 51/57/50
f 53/59/52 92/135/92 54/60/53
f 56/62/55 66/170/65 57/63/56
f 59/65/58 88/171/88 60/66/59
f 60/66/59 20/157/20 61/67/60
f 44/172/43 9/70/9 63/69/62
f 9/70/9 34/173/34 62/68/61
f 34/173/34 89/119/89 62/68/61
f 64/71/63 21/22/21 23/24/23
f 58/64/57 57/63/56 65/73/64
f 65/73/64 2/2/2 28/29/28
f 62/68/61 97/141/97 21/22/21
f 22/23/22 90/120/90 73/174/72
f 73/174/72 66/74/65 22/23/22
f 66/74/65 75/175/74 23/24/23
f 15/16/15 110/176/110 33/177/111
f 33/177/111 111/178/112 15/16/15
f 111/178/112 25/26/25 15/16/15
f 69/80/68 8/8/8 18/19/18
f 18/19/18 55/61/54 69/80/68
f 2/76/2 65/179/64 70/81/69
f 65/179/64 100/180/100 70/81/69
f 102/181/102 101/182/101 100/147/100
f 108/183/108 112/184/113 105/185/105
f 108/183/108 105/185/105 34/86/34
f 105/185/105 39/87/38 34/86/34
f 102/181/102 100/147/100 73/85/72
f 103/186/103 102/181/102 73/85/72
f 39/87/38 103/186/103 73/85/72
f 73/90/72 100/180/100 57/88/56
f 100/180/100 65/179/64 57/88/56
f 16/91/16 51/187/50 56/62/55
f 41/92/40 12/12/12 11/11/11
f 75/94/74 24/25/24 26/27/26
f 26/27/26 29/31/29 75/94/74
f 104/167/104 47/53/46 76/95/75
f 47/53/46 46/52/45 50/56/49
f 42/47/41 70/146/69 77/96/76
f 32/188/32 107/189/107 67/101/66
f 107/189/107 80/99/79 67/101/66
f 78/97/77 80/190/79 81/102/80
f 82/103/81 93/144/93 83/104/82
f 40/105/39 105/159/105 112/191/113
f 112/191/113 82/103/81 40/105/39
f 84/106/83 27/192/27 110/176/110
f 110/176/110 15/16/15 84/106/83
f 25/107/25 111/193/112 61/67/60
f 111/193/112 79/194/78 61/67/60
f 79/194/78 59/65/58 61/67/60
f 28/29/28 84/163/83 17/108/17
f 17/108/17 16/91/16 58/64/57
f 85/111/84 108/165/108 69/109/68
f 54/110/53 14/126/14 85/111/84
f 86/112/85 113/195/86 87/113/86
f 41/115/40 74/196/73 68/116/67
f 55/61/54 60/162/59 88/118/88
f 80/99/79 107/189/107 31/33/31
f 90/120/90 98/142/98 89/119/89
f 89/119/89 34/173/34 73/85/72
f 77/121/76 114/197/114 91/122/91
f 93/127/93 85/132/84 14/15/14
f 7/7/7 9/9/9 44/128/43
f 41/153/40 91/198/91 12/131/12
f 91/198/91 71/129/70 12/131/12
f 82/133/81 112/184/113 108/183/108
f 108/183/108 85/132/84 82/133/81
f 3/78/3 68/199/67 74/200/73
f 11/134/11 106/201/106 92/135/92
f 106/201/106 13/202/13 92/135/92
f 3/78/3 74/200/73 11/134/11
f 27/203/27 1/1/1 110/204/110
f 1/1/1 3/78/3 110/204/110
f 33/205/111 110/204/110 3/78/3
f 59/206/58 79/207/78 92/135/92
f 79/207/78 94/136/94 92/135/92
f 94/136/94 33/205/111 3/78/3
f 3/78/3 11/134/11 94/136/94
f 92/135/92 53/208/52 59/206/58
f 53/208/52 88/209/88 59/206/58
f 6/6/6 26/49/26 25/107/25
f 97/141/97 62/68/61 89/119/89
f 64/71/63 30/72/30 63/69/62
f 75/143/74 66/170/65 56/62/55
f 93/144/93 72/83/71 71/82/70
f 99/145/99 77/96/76 70/146/69
f 100/147/100 101/182/101 99/145/99
f 97/141/97 98/142/98 90/120/90
f 101/149/101 102/151/102 38/150/37
f 38/150/37 114/197/114 99/148/99
f 114/197/114 77/121/76 99/148/99
f 19/156/19 4/4/4 61/67/60
